<svg xmlns="http://www.w3.org/2000/svg" version="1.1" xmlns:xlink="http://www.w3.org/1999/xlink" width="512" height="512" x="0" y="0" viewBox="0 0 512 512" style="enable-background:new 0 0 512 512" xml:space="preserve" class=""><g><path d="M304.5 484.5c-.9 0-1.8 0-2.7-.1-11-1.1-20.1-9.1-22.6-19.9l-79.7-333L141.9 253c-4.3 9.1-13.5 14.9-23.6 14.9H26c-14.4 0-26-11.7-26-26.1s11.7-26 26-26h75.8L184 42.4c6.1-13 21.7-18.6 34.7-12.4 7.2 3.4 12.4 9.8 14.2 17.5l79.7 333L370.1 259c4.3-9.1 13.5-14.9 23.5-14.9H486c14.4 0 26 11.7 26 26.1s-11.7 26-26 26h-75.9L328 469.6c-4.3 9.1-13.5 14.9-23.5 14.9z" fill="#4b35d7" opacity="1" data-original="#000000" class=""></path></g></svg>